
<svg xmlns="http://www.w3.org/2000/svg" width="24" height="24" viewBox="0 0 24 24" fill="none" stroke="currentColor" stroke-width="2" stroke-linecap="round" stroke-linejoin="round"><path d="M6.081 20c1.973-.21 4.044-1.571 4.044-4.586V8.016c0-1.81.169-3.158 1.12-3.69.51-.285 1.453-.495 2.179.126.53.452.666 1.256.666 2.198 0 .288 0 .697.169 1.184m3.653 12.166c-1.973-.21-4.044-1.571-4.044-4.586V8.016c0-1.81-.169-3.158-1.12-3.69-.51-.285-1.453-.495-2.179.126-.53.452-.666 1.256-.666 2.198 0 .288 0 .697-.169 1.184"/><path d="M12 4v4"/></svg>
