
<svg xmlns="http://www.w3.org/2000/svg" width="24" height="24" viewBox="0 0 24 24" fill="none" stroke="currentColor" stroke-width="2" stroke-linecap="round" stroke-linejoin="round"><path d="M12 5.5c-1.074-.429-2.3-1.286-2.3-2.286 0-1.954 2.81-2.476 4.3-1.714m0 0c1.074-.429 2.3-1.286 2.3-2.286 0-1.954-2.81-2.476-4.3-1.714M12 5.5V19c0 .968.576 2 2 2s1.95-1.714 1.95-3.2c.314.296 2.05 1.2 3.15 0 .8-.8.8-2.6 0-3.5"/><path d="M12 5.5c1.074-.429 2.3-1.286 2.3-2.286 0-1.954-2.81-2.476-4.3-1.714m0 0c-1.074-.429-2.3-1.286-2.3-2.286 0-1.954 2.81-2.476 4.3-1.714M12 5.5V19c0 .968-.576 2-2 2s-1.95-1.714-1.95-3.2c-.314.296-2.05 1.2-3.15 0-.8-.8-.8-2.6 0-3.5"/></svg>
